<svg width="32" height="32" viewBox="0 0 32 32" fill="none" xmlns="http://www.w3.org/2000/svg">
<path d="M23.466 7.46673H23.472ZM30.9023 5.33348H24.8319L25.4266 2.95624L27.9811 2.08627C28.5244 1.90161 28.8478 1.3243 28.6911 0.772321C28.6512 0.633469 28.5836 0.50416 28.4922 0.392238C28.4009 0.280316 28.2878 0.188115 28.1597 0.121226C28.0317 0.0543374 27.8914 0.0141556 27.7474 0.003118C27.6033 -0.00791959 27.4586 0.0104171 27.3218 0.0570158L24.1886 1.12364C24.0199 1.18118 23.8682 1.28009 23.7476 1.41134C23.6269 1.54258 23.5411 1.70198 23.498 1.87495L22.6333 5.33348H13.8963C13.3224 5.33348 12.8297 5.77479 12.801 6.34877C12.7941 6.49299 12.8165 6.63712 12.8669 6.77242C12.9173 6.90772 12.9946 7.03139 13.0942 7.13591C13.1938 7.24044 13.3136 7.32366 13.4464 7.38052C13.5791 7.43739 13.7219 7.46672 13.8663 7.46673H14.0497L14.1163 8.04404C14.132 8.17886 14.1967 8.30321 14.2981 8.39343C14.3995 8.48365 14.5306 8.53345 14.6663 8.53335C17.2662 8.53335 19.5768 9.25999 21.3407 10.6346C22.3218 11.3906 23.1172 12.3608 23.666 13.4712C23.9732 14.0957 24.1998 14.7568 24.3406 15.4384C24.3686 15.5713 24.4473 15.6879 24.5599 15.7637C25.4668 16.3791 26.1358 17.2862 26.4557 18.3344C26.7756 19.3826 26.7272 20.5087 26.3185 21.5255C26.271 21.6432 26.2674 21.7741 26.3085 21.8942C26.5447 22.571 26.6655 23.2826 26.6658 23.9994C26.6658 25.4887 26.1592 26.908 25.2392 27.9959C24.7177 28.6169 24.0615 29.1109 23.3206 29.4405C23.1925 29.497 23.0916 29.6017 23.04 29.7319C22.7631 30.4531 22.3721 31.1252 21.882 31.7225C21.8616 31.7467 21.8486 31.7762 21.8443 31.8076C21.8401 31.839 21.845 31.871 21.8582 31.8997C21.8715 31.9285 21.8927 31.9528 21.9194 31.97C21.946 31.9871 21.977 31.9963 22.0087 31.9964H25.2892C26.0924 31.9932 26.8653 31.6893 27.4557 31.1447C28.046 30.6001 28.4111 29.8542 28.4791 29.0539L30.759 7.46673H30.9323C31.0768 7.4669 31.2199 7.4377 31.3527 7.38092C31.4856 7.32413 31.6056 7.24094 31.7053 7.1364C31.805 7.03185 31.8825 6.90813 31.933 6.77273C31.9835 6.63734 32.0059 6.4931 31.999 6.34877C31.971 5.77479 31.4763 5.33348 30.9023 5.33348Z" fill="#C11111"/>
<path d="M6.1791 20.2663C6.38946 20.2653 6.59794 20.306 6.79247 20.3861C6.987 20.4662 7.16371 20.5841 7.31238 20.7329L8.34634 21.7669C8.37111 21.7917 8.40052 21.8113 8.43289 21.8247C8.46526 21.8382 8.49996 21.8451 8.535 21.8451C8.57005 21.8451 8.60475 21.8382 8.63712 21.8247C8.66949 21.8113 8.6989 21.7917 8.72366 21.7669L9.75562 20.7329C9.9043 20.5841 10.081 20.4662 10.2755 20.3861C10.4701 20.306 10.6785 20.2653 10.8889 20.2663H23.9937C24.0638 20.267 24.1333 20.2539 24.1982 20.2277C24.2632 20.2016 24.3224 20.1629 24.3724 20.1138C24.4224 20.0648 24.4623 20.0064 24.4898 19.942C24.5172 19.8775 24.5317 19.8083 24.5324 19.7383V19.7329C24.5316 19.1184 24.319 18.523 23.9305 18.047C23.5419 17.571 23.001 17.2435 22.3991 17.1197C22.3445 15.1405 21.5325 13.4839 20.0319 12.3199C18.6439 11.2373 16.7894 10.6666 14.6661 10.6666H9.86629C5.31846 10.6666 2.23791 13.2512 2.13325 17.1197C1.53135 17.2435 0.990521 17.571 0.60193 18.047C0.21334 18.523 0.000751289 19.1184 5.38234e-07 19.7329C5.38234e-07 19.8744 0.0561887 20.01 0.156204 20.1101C0.25622 20.2101 0.39187 20.2663 0.533313 20.2663H6.1791ZM11.3289 22.3995C11.2588 22.3994 11.1895 22.4132 11.1247 22.44C11.06 22.4667 11.0011 22.506 10.9516 22.5555L9.47564 24.0321C9.22561 24.2821 8.88654 24.4225 8.533 24.4225C8.17947 24.4225 7.8404 24.2821 7.59037 24.0321L6.11443 22.5555C6.06487 22.506 6.00603 22.4667 5.94129 22.44C5.87655 22.4132 5.80717 22.3994 5.73711 22.3995H1.11062C0.860071 22.3984 0.617193 22.4859 0.424931 22.6466C0.232669 22.8072 0.103406 23.0307 0.0599982 23.2775C0.019949 23.516 -0.00011983 23.7575 5.38234e-07 23.9994C5.38234e-07 26.0387 1.40861 27.7 3.15055 27.7326C3.31254 28.7406 3.70452 29.6512 4.2945 30.3639C5.16713 31.4178 6.43575 31.9991 7.86636 31.9991H16.666C18.0966 31.9991 19.3653 31.4178 20.2379 30.3625C20.8279 29.6499 21.2198 28.7393 21.3818 27.7313C23.1238 27.7 24.5324 26.0387 24.5324 23.9981C24.5325 23.7562 24.5124 23.5147 24.4724 23.2761C24.4287 23.0296 24.2993 22.8065 24.1071 22.6461C23.9148 22.4857 23.6721 22.3983 23.4218 22.3995H11.3289Z" fill="#C11111"/>
</svg>
